<?xml version="1.0" standalone="no"?>
<!DOCTYPE svg PUBLIC "-//W3C//DTD SVG 20010904//EN"
 "http://www.w3.org/TR/2001/REC-SVG-20010904/DTD/svg10.dtd">
<svg version="1.0" xmlns="http://www.w3.org/2000/svg"
 width="690.000000pt" height="361.000000pt" viewBox="0 0 690.000000 361.000000"
 preserveAspectRatio="xMidYMid meet">

<g transform="translate(0.000000,361.000000) scale(0.100000,-0.100000)"
fill="#000000" stroke="none">
<path d="M5317 2671 l-11 -30 -121 -3 -120 -3 0 -30 0 -30 120 -5 120 -5 0
-25 0 -25 -151 -3 c-123 -2 -154 -5 -165 -18 -9 -11 -10 -20 -2 -32 8 -14 35
-18 164 -22 150 -5 154 -6 157 -27 3 -23 2 -23 -103 -23 -112 0 -145 -9 -145
-39 0 -33 24 -40 136 -43 l109 -3 0 -30 0 -30 -107 -3 c-110 -3 -137 -13 -124
-47 4 -12 26 -15 109 -15 79 0 107 -4 117 -15 24 -29 0 -35 -144 -35 -156 0
-181 -7 -174 -51 l3 -24 340 -3 c187 -1 350 0 361 3 27 6 38 33 23 51 -9 11
-45 14 -153 14 -106 0 -147 4 -161 14 -16 12 -17 16 -6 30 11 13 34 16 122 16
99 0 108 2 114 20 3 11 3 24 0 30 -4 6 -52 10 -114 10 -87 0 -111 3 -122 16
-9 11 -10 20 -2 32 8 13 31 18 104 22 52 3 104 11 115 17 21 12 40 48 46 88 3
15 13 21 46 26 24 3 48 12 52 19 15 24 -8 50 -43 50 -43 0 -53 9 -61 51 -11
62 -34 73 -154 79 -103 5 -106 6 -112 30 -9 39 -48 40 -63 1z m252 -119 c17
-31 -6 -42 -90 -42 -56 0 -80 4 -89 15 -10 12 -10 18 0 30 9 11 33 15 91 15
66 0 80 -3 88 -18z m3 -124 c12 -32 -4 -38 -92 -38 -90 0 -105 5 -94 34 5 13
23 16 94 16 61 0 89 -4 92 -12z"/>
<path d="M6106 2678 c-14 -20 -16 -93 -16 -598 0 -626 -1 -620 55 -620 57 0
55 -21 55 624 0 447 -3 595 -12 604 -20 20 -65 14 -82 -10z"/>
<path d="M856 2674 c-18 -17 -20 -42 -6 -64 7 -12 45 -16 202 -20 l193 -5 0
-25 0 -25 -230 -5 c-293 -6 -295 -7 -295 -142 0 -79 9 -98 46 -98 30 0 54 36
54 80 0 20 5 41 12 48 17 17 389 17 406 0 8 -8 12 -47 12 -108 0 -87 -2 -98
-22 -117 -13 -11 -123 -89 -245 -172 -123 -84 -223 -159 -223 -166 0 -26 81
-33 130 -12 10 5 20 -3 30 -26 l15 -32 152 -5 c83 -3 155 -9 160 -13 4 -5 10
-75 13 -155 l5 -147 30 -3 c48 -6 55 15 55 165 0 121 2 133 19 143 28 14 214
13 229 -2 7 -7 12 -41 12 -85 0 -63 3 -74 20 -83 25 -13 56 -5 64 16 3 9 9 55
12 102 4 48 11 93 17 100 5 6 24 12 42 12 45 0 65 9 65 29 0 11 -85 76 -234
179 -128 89 -236 169 -240 178 -3 8 -6 56 -6 104 0 78 2 91 19 100 12 6 95 10
201 10 106 0 189 -4 201 -10 15 -8 19 -21 19 -58 0 -54 12 -72 50 -72 41 0 50
17 50 97 0 66 -3 76 -29 105 l-29 33 -234 3 c-128 2 -237 7 -241 12 -5 4 -6
17 -2 29 6 20 12 21 194 21 132 0 191 4 199 12 19 19 15 66 -7 78 -13 6 -171
10 -445 10 -373 0 -426 -2 -440 -16z m518 -599 c25 -20 46 -40 46 -45 0 -6
-51 -10 -120 -10 -66 0 -120 4 -120 9 0 17 95 80 121 80 15 1 45 -14 73 -34z
m-271 -125 c5 -19 14 -20 195 -20 185 0 191 1 206 22 l15 22 58 -41 c32 -23
58 -47 58 -55 0 -11 -61 -13 -335 -13 -254 0 -335 3 -335 12 0 14 103 93 121
93 6 0 14 -9 17 -20z"/>
<path d="M2697 2662 c-10 -10 -17 -34 -17 -53 0 -19 -5 -40 -12 -47 -8 -8 -67
-12 -199 -12 -203 0 -219 -4 -219 -55 0 -51 16 -55 219 -55 132 0 191 -4 199
-12 14 -14 17 -265 3 -286 -5 -9 -26 -12 -67 -10 l-59 3 -27 85 c-37 115 -82
154 -134 116 -19 -14 -18 -16 9 -96 16 -44 26 -87 23 -95 -4 -12 -26 -15 -98
-15 -104 0 -138 -14 -138 -55 0 -51 16 -55 216 -55 154 0 186 -2 190 -15 4
-10 -44 -72 -137 -177 -78 -90 -149 -171 -157 -180 -12 -15 -13 -20 -1 -34 14
-17 72 -14 111 7 10 5 70 69 134 142 63 73 120 132 127 132 9 0 13 -53 17
-198 4 -161 8 -200 20 -207 24 -15 55 -12 73 8 15 16 17 46 17 210 0 105 4
193 9 196 5 4 33 -20 63 -51 216 -233 241 -253 312 -253 49 0 54 25 14 69 -18
19 -93 98 -165 173 -80 83 -133 146 -133 158 0 19 7 20 183 20 165 0 186 2
200 18 22 25 21 48 -3 72 -17 17 -33 20 -114 20 -54 0 -98 4 -101 10 -4 6 7
46 24 90 33 86 32 107 -4 116 -48 12 -79 -19 -115 -110 -18 -47 -39 -91 -46
-96 -7 -6 -36 -10 -66 -8 l-53 3 -3 139 c-2 93 1 143 9 152 9 11 51 14 199 14
168 0 189 2 203 18 22 24 21 55 -1 75 -16 15 -45 17 -203 17 -131 0 -189 4
-197 12 -7 7 -12 28 -12 48 0 61 -57 92 -93 52z"/>
<path d="M4426 2664 c-13 -13 -16 -46 -16 -200 0 -109 -4 -193 -10 -205 -9
-17 -22 -19 -103 -19 -107 0 -137 -13 -137 -60 0 -47 30 -60 137 -60 50 0 94
-4 97 -9 3 -5 8 -141 11 -302 4 -162 8 -302 11 -311 12 -40 89 -34 104 8 6 14
10 151 10 308 0 206 3 285 12 294 8 8 47 12 109 12 90 0 99 2 113 22 20 28 20
48 2 74 -12 16 -30 20 -123 24 l-108 5 -5 201 c-4 150 -9 205 -19 217 -17 21
-65 22 -85 1z"/>
<path d="M3645 2650 c-15 -16 -17 -26 -9 -48 l9 -27 159 -3 c168 -3 186 1 186
43 0 47 -25 55 -182 55 -133 0 -146 -2 -163 -20z"/>
<path d="M5867 2582 c-15 -17 -17 -55 -17 -344 0 -302 1 -326 18 -341 25 -22
48 -21 72 3 19 19 20 33 20 338 0 271 -2 321 -16 340 -18 27 -55 29 -77 4z"/>
<path d="M3560 2465 c-18 -22 -15 -64 6 -80 25 -19 460 -21 485 -2 25 20 31
48 14 73 l-15 24 -239 0 c-200 0 -241 -2 -251 -15z"/>
<path d="M924 2366 c-3 -8 -4 -23 -2 -33 3 -16 15 -18 107 -18 86 0 106 3 114
17 8 12 7 21 -2 32 -19 22 -209 24 -217 2z"/>
<path d="M1464 2366 c-3 -8 -4 -23 -2 -33 3 -16 15 -18 107 -18 86 0 106 3
114 17 8 12 7 21 -2 32 -19 22 -209 24 -217 2z"/>
<path d="M3626 2259 c-8 -12 -12 -29 -9 -38 13 -37 33 -41 195 -41 145 0 160
2 178 20 23 23 24 33 10 61 -10 18 -23 19 -185 19 -166 0 -175 -1 -189 -21z"/>
<path d="M932 2261 c-8 -4 -12 -19 -10 -32 3 -24 5 -24 113 -24 98 0 110 2
113 18 7 37 -16 47 -112 47 -50 0 -97 -4 -104 -9z"/>
<path d="M1472 2261 c-8 -4 -12 -19 -10 -32 3 -24 5 -24 113 -24 98 0 110 2
113 18 7 37 -16 47 -112 47 -50 0 -97 -4 -104 -9z"/>
<path d="M3621 2068 c-12 -32 -2 -58 26 -69 13 -5 94 -9 178 -9 154 0 155 0
171 25 14 21 15 31 6 50 l-12 25 -180 0 c-177 0 -181 0 -189 -22z"/>
<path d="M5088 1971 l-33 -29 0 -117 0 -117 33 -29 32 -29 236 0 c312 0 314 1
314 175 0 174 -2 175 -314 175 l-236 0 -32 -29z m231 -60 c7 -13 7 -23 -2 -35
-10 -14 -27 -16 -102 -14 -77 3 -90 6 -93 21 -8 41 3 47 97 47 78 0 92 -3 100
-19z m276 -16 l0 -30 -95 0 c-83 0 -95 2 -98 18 -8 43 3 48 100 45 l93 -3 0
-30z m-276 -122 c6 -11 6 -24 0 -35 -8 -15 -23 -18 -89 -18 -43 0 -85 3 -94 6
-16 6 -22 45 -9 57 3 4 46 7 94 7 73 0 90 -3 98 -17z m276 -18 l0 -30 -92 -3
c-91 -3 -93 -2 -99 22 -10 42 1 47 99 44 l92 -3 0 -30z"/>
<path d="M3641 1896 c-44 -24 -50 -51 -51 -203 0 -217 5 -223 219 -223 216 0
221 5 221 225 0 81 -5 155 -10 166 -22 40 -61 49 -212 49 -99 -1 -150 -5 -167
-14z m283 -112 c8 -20 8 -178 0 -198 -5 -13 -24 -16 -108 -16 -66 0 -106 4
-114 12 -13 13 -17 173 -6 202 5 13 25 16 114 16 89 0 109 -3 114 -16z"/>
<path d="M5475 1599 c-71 -5 -203 -13 -293 -18 -170 -10 -192 -16 -192 -56 0
-45 8 -45 360 -24 298 18 337 22 354 39 17 16 18 23 8 45 -13 28 -10 28 -237
14z"/>
<path d="M2327 1294 c-4 -4 -7 -80 -7 -169 0 -128 3 -165 14 -174 19 -16 148
-10 153 6 3 8 -15 13 -59 15 l-63 3 -5 159 c-5 149 -11 181 -33 160z"/>
<path d="M3553 1293 c-10 -4 -13 -49 -13 -179 0 -148 2 -174 15 -174 8 0 16 6
16 13 1 6 3 19 4 27 1 8 3 43 4 78 l1 62 66 0 c97 0 104 6 104 91 0 47 -4 71
-12 74 -21 6 -172 13 -185 8z m160 -47 c3 -8 3 -31 0 -50 l-6 -36 -63 0 -64 0
0 50 0 50 64 0 c46 0 65 -4 69 -14z"/>
<path d="M1137 1283 c-7 -11 -12 -142 -9 -251 1 -70 5 -93 15 -90 8 3 14 34
17 89 l5 84 31 3 c29 3 31 0 58 -65 31 -78 52 -113 66 -113 16 0 12 24 -14 81
-40 92 -41 99 -13 99 38 0 48 21 45 97 l-3 68 -97 3 c-53 1 -99 -1 -101 -5z
m163 -73 l0 -50 -64 0 c-37 0 -66 5 -68 11 -2 5 -2 28 0 50 l4 39 64 0 64 0 0
-50z"/>
<path d="M5960 1248 c0 -17 -7 -40 -17 -50 -15 -17 -15 -19 0 -36 13 -14 17
-39 17 -108 0 -100 7 -114 57 -114 41 0 46 27 6 32 l-28 3 -3 92 -3 92 27 3
c38 4 41 24 4 31 -27 6 -30 10 -30 47 0 29 -4 40 -15 40 -10 0 -15 -10 -15
-32z"/>
<path d="M2024 1249 c-7 -12 15 -31 28 -23 4 3 8 12 8 20 0 17 -26 19 -36 3z"/>
<path d="M4810 1245 c0 -8 7 -15 15 -15 8 0 15 7 15 15 0 8 -7 15 -15 15 -8 0
-15 -7 -15 -15z"/>
<path d="M1612 1188 c-19 -19 -16 -212 4 -232 22 -22 154 -23 154 -1 0 12 -14
15 -65 15 l-65 0 0 50 0 50 49 0 c76 0 81 4 81 65 0 39 -4 54 -16 59 -28 11
-130 6 -142 -6z m118 -53 c0 -23 -4 -25 -45 -25 -41 0 -45 2 -45 25 0 23 4 25
45 25 41 0 45 -2 45 -25z"/>
<path d="M2024 1185 c-7 -17 4 -236 12 -244 2 -3 9 0 14 5 16 16 8 246 -7 252
-7 2 -16 -4 -19 -13z"/>
<path d="M2730 1180 c0 -16 8 -19 63 -22 54 -3 62 -5 62 -23 0 -17 -8 -20 -55
-23 -30 -2 -60 -8 -67 -14 -17 -14 -17 -130 -1 -146 7 -7 39 -12 74 -12 85 0
94 13 94 140 0 61 -4 100 -12 108 -7 7 -42 12 -85 12 -66 0 -73 -2 -73 -20z
m125 -160 l0 -45 -47 -3 -48 -3 0 51 0 51 48 -3 47 -3 0 -45z"/>
<path d="M4383 1185 c-11 -8 -13 -36 -11 -125 l3 -115 71 -3 c52 -2 74 1 83
12 8 9 11 49 9 122 l-3 109 -69 5 c-39 3 -75 1 -83 -5z m125 -117 l-3 -93 -50
0 -50 0 -3 93 -3 92 56 0 56 0 -3 -92z"/>
<path d="M5123 1193 c-19 -7 -18 -226 1 -242 17 -15 152 -11 149 4 -2 6 -31
12 -65 15 l-63 5 -3 47 -3 47 63 3 63 3 3 56 c3 52 1 57 -20 63 -27 7 -107 7
-125 -1z m115 -60 c-3 -26 -6 -28 -48 -28 -42 0 -45 2 -48 28 -3 26 -2 27 48
27 50 0 51 -1 48 -27z"/>
<path d="M5560 1190 c-24 -6 -25 -8 -28 -114 -2 -73 1 -113 9 -122 9 -11 31
-14 83 -12 88 4 90 21 4 28 l-63 5 0 90 0 90 59 5 c66 6 87 26 34 34 -38 5
-63 4 -98 -4z"/>
<path d="M4005 1168 c-3 -13 -5 -68 -3 -123 2 -81 6 -100 18 -100 12 0 16 20
18 107 l3 107 41 3 c23 2 43 9 46 16 3 9 -13 12 -57 12 -55 0 -61 -2 -66 -22z"/>
<path d="M4808 1033 l-3 -158 -27 -3 c-42 -5 -33 -22 11 -22 26 0 41 5 45 16
3 9 6 85 6 170 0 129 -2 154 -15 154 -12 0 -15 -27 -17 -157z"/>
</g>
</svg>
