<?xml version="1.0" standalone="no"?>
<!DOCTYPE svg PUBLIC "-//W3C//DTD SVG 20010904//EN"
 "http://www.w3.org/TR/2001/REC-SVG-20010904/DTD/svg10.dtd">
<svg version="1.0" xmlns="http://www.w3.org/2000/svg"
 width="690.000000pt" height="361.000000pt" viewBox="0 0 690.000000 361.000000"
 preserveAspectRatio="xMidYMid meet">

<g transform="translate(0.000000,361.000000) scale(0.100000,-0.100000)"
fill="#000000" stroke="none">
<path d="M1642 2825 c-39 -49 -41 -55 -22 -55 12 0 18 -4 15 -10 -4 -6 -58
-10 -131 -10 -76 0 -124 4 -124 10 0 6 5 10 12 10 6 0 9 1 7 3 -2 1 -51 -1
-109 -6 -58 -4 -177 -11 -265 -15 l-160 -8 164 -2 c140 -2 162 -4 157 -17 -3
-8 -1 -15 3 -15 5 0 12 6 14 13 5 11 11 -57 8 -77 -6 -30 -6 -76 -1 -76 7 0 3
-118 -5 -137 -2 -7 0 -13 5 -13 20 0 -45 -109 -65 -110 -13 0 -85 59 -85 70 0
5 25 12 55 15 30 4 55 12 55 17 0 12 -74 86 -110 111 -21 15 -22 19 -10 27 8
5 12 12 8 15 -6 6 -56 -44 -85 -85 -13 -18 -12 -20 4 -20 15 0 14 -4 -7 -20
l-25 -20 33 0 c17 0 32 -4 32 -9 0 -5 -18 -26 -40 -47 -21 -20 -37 -41 -34
-45 2 -4 -3 -12 -13 -18 -16 -8 -14 -10 10 -16 15 -4 24 -11 21 -16 -3 -5 27
-9 65 -9 39 0 71 -4 71 -9 0 -9 -87 -87 -160 -142 l-34 -26 89 3 c105 4 253
23 276 35 8 4 37 26 64 48 27 23 56 41 63 41 7 0 30 -18 51 -40 l37 -39 90 6
c123 8 143 17 74 32 -71 16 -190 62 -190 73 0 4 -7 8 -15 8 -8 0 -15 5 -15 10
0 6 -12 22 -27 35 l-28 23 28 13 27 12 0 128 c0 107 3 129 16 137 15 8 15 10
0 15 -19 8 -22 62 -3 74 6 4 57 11 112 14 l100 5 -119 2 c-140 2 -148 13 -14
17 101 4 151 -2 142 -16 -4 -8 85 -15 124 -10 23 3 12 -23 -25 -61 -23 -24
-32 -38 -22 -38 8 0 21 6 29 13 8 6 6 2 -5 -11 -18 -21 -24 -22 -111 -18 -51
3 -105 1 -121 -4 -19 -6 13 -9 101 -9 114 -1 127 -3 122 -17 -5 -14 -4 -15 9
-4 24 20 20 -51 -6 -84 l-20 -26 -55 47 c-38 33 -50 49 -42 55 9 5 10 8 1 8
-6 0 -32 -24 -57 -52 -34 -39 -42 -54 -31 -56 8 -2 15 -8 15 -14 0 -6 -12 -8
-30 -5 -16 4 -32 3 -34 -2 -3 -5 14 -11 38 -14 24 -4 55 -12 70 -18 l26 -12
-27 -35 -26 -35 29 7 c28 7 28 7 10 -12 -17 -20 -17 -20 3 -27 12 -3 21 -11
21 -16 0 -5 39 -9 87 -9 l87 0 -59 60 c-32 33 -57 61 -54 64 2 2 26 8 54 14
36 8 52 8 57 -1 6 -10 92 43 171 106 l29 22 -80 86 c-64 68 -77 87 -66 95 12
7 10 15 -16 46 -29 34 -144 128 -159 128 -3 0 -26 -25 -49 -55z m122 -400 c-4
-8 -10 -15 -15 -15 -4 0 -6 7 -3 15 4 8 10 15 15 15 4 0 6 -7 3 -15z"/>
<path d="M2683 2852 c-32 -5 -34 -28 -31 -342 l3 -275 55 3 c30 1 79 5 108 8
l52 5 0 165 0 164 34 0 c47 0 72 -10 54 -21 -9 -6 -7 -9 10 -9 28 0 28 -17 3
-96 -42 -130 -54 -186 -43 -193 6 -4 46 -2 89 3 76 10 77 10 142 73 37 35 69
63 74 63 35 0 -49 83 -111 110 -29 12 -52 26 -52 31 0 5 70 9 155 9 85 0 155
4 155 9 0 14 -108 109 -168 150 l-54 35 -58 -64 c-48 -54 -55 -66 -39 -68 10
-2 19 -8 19 -13 0 -14 -78 -11 -83 4 -3 10 -11 10 -39 0 -19 -7 -46 -13 -59
-13 -24 0 -25 2 -28 78 -2 61 1 81 13 91 20 17 20 31 1 31 -9 0 -12 6 -9 15 4
9 0 15 -9 15 -9 0 -20 6 -24 14 -8 14 -113 26 -160 18z m410 -289 c-13 -2 -33
-2 -45 0 -13 2 -3 4 22 4 25 0 35 -2 23 -4z"/>
<path d="M4388 2841 c-1 -9 -2 -116 -3 -238 l-1 -223 55 6 c31 4 81 9 111 13
l55 6 3 170 c2 143 5 172 19 182 14 11 12 16 -20 48 -37 37 -55 43 -154 49
-52 2 -63 0 -65 -13z"/>
<path d="M5264 2834 c-4 -14 -7 -104 -8 -201 l-1 -175 75 6 c129 12 120 3 120
116 0 103 3 110 51 110 25 0 26 -50 2 -88 -15 -23 -15 -25 -1 -14 14 11 16 8
15 -30 0 -24 -4 -49 -10 -55 -11 -15 -7 -16 83 -14 85 3 97 7 104 36 6 23 11
25 66 25 45 0 60 -4 60 -14 0 -8 -6 -17 -12 -20 -15 -6 158 3 184 10 21 6 30
122 11 142 -7 7 -13 17 -13 21 0 14 -57 39 -95 41 -54 3 -75 -7 -75 -36 0 -14
-9 -35 -20 -46 l-20 -22 -33 30 c-17 16 -65 60 -105 97 -40 37 -79 67 -87 67
-8 0 -30 -14 -50 -31 l-35 -31 -47 46 c-25 25 -56 47 -67 47 -12 1 -36 3 -53
5 -28 3 -34 0 -39 -22z m211 -94 c3 -5 2 -10 -4 -10 -5 0 -13 5 -16 10 -3 6
-2 10 4 10 5 0 13 -4 16 -10z m12 -36 c-3 -3 -12 -4 -19 -1 -8 3 -5 6 6 6 11
1 17 -2 13 -5z"/>
<path d="M3900 2841 c0 -6 -20 -31 -45 -58 -35 -37 -48 -44 -57 -35 -7 7 -19
12 -27 12 -14 0 -14 -1 -1 -10 12 -8 11 -10 -7 -10 -12 0 -25 5 -28 10 -4 6
-11 5 -20 -4 -8 -7 -26 -12 -42 -10 -15 2 -37 0 -48 -3 -19 -6 -18 -7 5 -14
14 -4 79 -8 145 -10 l120 -3 -125 -6 -125 -6 173 -2 c94 -1 172 -5 172 -9 -2
-30 -83 -123 -107 -123 -15 0 -16 2 -3 10 10 6 -38 9 -140 9 -133 0 -159 -2
-183 -18 -28 -18 -27 -31 5 -31 10 0 18 -5 18 -11 0 -6 7 -8 17 -5 9 4 20 1
24 -6 6 -10 15 -10 39 -1 17 7 30 7 30 2 0 -6 18 -9 39 -7 22 1 38 5 35 10 -3
4 12 8 33 7 32 0 35 -2 18 -10 -15 -7 -13 -8 10 -3 17 4 45 6 63 5 21 -1 31 2
27 9 -4 6 6 10 27 9 30 0 31 -1 11 -9 -13 -5 -23 -11 -23 -13 0 -4 202 3 217
8 21 7 5 28 -72 95 -40 35 -72 67 -69 72 3 4 23 8 45 8 43 0 46 5 23 38 -44
63 -174 147 -174 113z m50 -275 c0 -11 -19 -15 -25 -6 -3 5 1 10 9 10 9 0 16
-2 16 -4z"/>
<path d="M6084 2821 c-4 -9 -8 -78 -9 -155 l-2 -138 76 7 c129 11 121 4 121
101 0 70 3 87 19 103 16 16 17 20 5 25 -8 3 -14 12 -14 21 0 8 -5 15 -11 15
-6 0 -17 7 -25 15 -9 8 -34 16 -57 17 -23 0 -54 2 -69 3 -17 1 -30 -4 -34 -14z"/>
<path d="M838 2743 c7 -3 16 -2 19 1 4 3 -2 6 -13 5 -11 0 -14 -3 -6 -6z"/>
<path d="M5070 2720 c36 -11 82 -12 76 -1 -4 5 -27 9 -54 9 -37 -1 -42 -2 -22
-8z"/>
<path d="M5160 2720 c0 -5 5 -10 10 -10 6 0 10 5 10 10 0 6 -4 10 -10 10 -5 0
-10 -4 -10 -10z"/>
<path d="M908 2713 c7 -3 16 -2 19 1 4 3 -2 6 -13 5 -11 0 -14 -3 -6 -6z"/>
<path d="M739 2613 c-71 -72 -79 -89 -79 -156 0 -57 10 -72 73 -112 24 -15 33
-16 67 -6 51 15 71 53 78 143 3 51 9 68 21 71 14 4 13 5 -1 6 -10 0 -18 6 -18
11 0 6 55 10 143 11 91 0 135 4 122 9 -11 5 -67 9 -125 9 -157 0 -162 0 -155
11 3 6 0 10 -8 10 -8 0 -20 7 -27 15 -7 8 -16 13 -20 10 -5 -3 -10 2 -12 10
-2 11 -20 -2 -59 -42z"/>
<path d="M1460 2590 c-12 -8 -10 -10 8 -10 13 0 20 4 17 10 -7 12 -6 12 -25 0z"/>
<path d="M2324 2535 c-11 -28 45 -247 73 -283 24 -32 27 -33 89 -31 80 3 97
14 97 65 0 77 -114 204 -226 252 -23 10 -29 9 -33 -3z"/>
<path d="M6131 2518 c-41 -4 -77 -10 -80 -14 -3 -3 -6 -94 -6 -202 -1 -109 -5
-204 -10 -211 -7 -12 3 -13 59 -7 46 5 66 3 61 -4 -3 -6 -10 -8 -15 -5 -5 3
-18 1 -29 -4 -17 -10 -19 -23 -18 -171 l0 -161 -30 -31 c-25 -24 -34 -28 -49
-20 -14 8 -25 6 -41 -8 -21 -17 -21 -19 -5 -33 17 -15 34 -46 65 -119 9 -20
25 -39 37 -43 11 -4 17 -11 14 -17 -12 -19 85 0 129 24 73 42 77 59 77 340 l0
248 -25 0 -25 0 0 223 c0 205 -1 223 -17 223 -10 0 -51 -3 -92 -8z m94 -428
c-3 -5 -18 -9 -33 -9 l-27 1 30 8 c17 4 31 8 33 9 2 0 0 -3 -3 -9z"/>
<path d="M5845 2491 l-50 -6 -5 -213 -5 -212 50 -1 c28 -1 40 -4 28 -6 -22 -4
-23 -9 -23 -104 0 -74 3 -98 12 -93 7 5 9 2 5 -9 -10 -27 38 -50 94 -45 76 8
79 13 79 144 l0 114 -62 1 c-50 1 -56 3 -28 8 l35 6 3 213 2 212 -42 -2 c-24
0 -65 -4 -93 -7z"/>
<path d="M3924 2482 c-23 -17 -74 -102 -62 -102 8 0 19 5 26 12 18 18 14 -3
-5 -24 -15 -17 -14 -18 18 -19 53 -3 173 2 178 7 14 14 -138 137 -155 126z"/>
<path d="M4679 2447 l-15 -34 40 -1 c64 -2 74 11 34 42 -19 14 -37 26 -39 26
-3 0 -12 -15 -20 -33z"/>
<path d="M5505 2458 c-27 -5 -55 -14 -61 -19 -8 -7 -15 -6 -20 2 -5 8 -33 10
-97 6 -49 -3 -91 -8 -94 -11 -3 -2 -7 -35 -9 -71 -2 -37 -7 -72 -11 -78 -4 -6
-1 -7 6 -2 19 11 6 -53 -15 -76 -16 -18 -16 -19 5 -19 17 0 21 -4 16 -19 -4
-14 -1 -19 12 -17 10 0 17 -5 16 -11 -2 -10 20 -13 88 -13 57 0 88 4 84 10 -4
6 5 10 19 10 29 0 32 -7 12 -32 -12 -16 -33 -18 -179 -18 -100 0 -168 4 -172
10 -4 6 15 10 51 10 76 0 64 9 -22 16 -90 8 -95 14 -11 14 36 0 69 5 72 10 4
6 -28 10 -87 11 -64 1 -84 4 -63 9 27 7 26 8 -16 9 -34 1 -50 -4 -64 -19 -18
-19 -17 -20 4 -20 12 0 19 -4 16 -10 -3 -5 -1 -10 5 -10 8 0 11 -22 8 -70 l-3
-70 45 -1 c25 -1 37 -3 28 -6 -16 -4 -18 -19 -18 -124 0 -104 2 -121 19 -138
21 -21 18 -31 -9 -31 -22 0 -80 -29 -80 -39 0 -5 11 -33 24 -62 25 -57 69
-109 92 -109 8 0 14 -5 14 -11 0 -7 9 -6 24 4 13 9 113 39 222 67 284 73 406
112 374 120 -24 6 -24 6 -5 18 19 11 19 11 -6 12 -36 0 -41 9 -18 33 17 18 19
36 19 138 0 68 4 120 10 124 14 9 12 45 -2 46 -57 5 -188 -12 -188 -24 0 -7
-11 -24 -25 -39 -16 -18 -20 -28 -12 -31 7 -3 2 -6 -10 -6 -18 -1 -23 5 -24
24 -1 14 -2 31 -3 38 -2 19 -37 25 -99 16 -43 -5 -66 -15 -93 -38 -19 -17 -30
-31 -24 -31 6 0 8 -5 5 -10 -11 -18 -25 0 -25 31 l0 31 -70 -4 c-39 -2 -70 0
-70 3 0 8 77 20 155 24 124 7 371 26 394 31 l24 5 -32 33 c-17 17 -31 35 -31
39 0 4 27 7 60 7 75 0 77 13 14 69 -45 40 -50 61 -14 61 33 0 32 18 -5 58 -40
45 -43 57 -15 72 14 8 20 21 20 45 l0 35 -52 -1 c-29 -1 -75 -6 -103 -11z
m-19 -52 c18 -19 18 -30 -1 -46 -8 -7 -15 -17 -15 -22 0 -6 7 -8 15 -4 26 10
16 -3 -17 -24 l-33 -20 38 0 c23 0 36 -4 32 -10 -3 -5 3 -10 14 -10 12 0 21
-4 21 -8 0 -11 -40 -47 -65 -59 -46 -21 -50 -14 -52 90 -2 85 0 97 15 98 10 0
12 3 5 6 -7 2 -13 9 -13 14 0 14 40 11 56 -5z m-39 -232 c-3 -3 -12 -4 -19 -1
-8 3 -5 6 6 6 11 1 17 -2 13 -5z m-177 -274 c0 -5 -7 -10 -15 -10 -8 0 -15 5
-15 10 0 6 7 10 15 10 8 0 15 -4 15 -10z m240 0 c0 -5 -7 -10 -15 -10 -8 0
-15 5 -15 10 0 6 7 10 15 10 8 0 15 -4 15 -10z m25 -27 c-13 -53 -56 -81 -69
-47 -11 28 3 54 29 54 13 0 27 5 30 10 12 19 17 10 10 -17z m-256 -30 c-7 -13
-21 -29 -31 -34 -16 -9 -18 -5 -18 30 0 36 3 40 28 43 33 4 38 -6 21 -39z
m269 -115 c-3 -9 -42 -15 -124 -19 -65 -4 -130 -8 -144 -9 -14 -1 -36 -2 -50
-1 l-25 2 24 19 c21 18 39 20 173 20 115 0 149 -3 146 -12z"/>
<path d="M4686 2388 c-33 -5 -69 -16 -80 -23 -17 -12 -21 -12 -31 2 -11 15
-24 16 -114 6 -56 -5 -104 -13 -108 -16 -3 -4 -5 -60 -3 -124 1 -65 3 -157 3
-205 0 -58 3 -88 11 -89 6 -1 43 -1 81 -2 48 0 56 -1 25 -4 -25 -2 -49 -8 -54
-13 -13 -13 -8 -385 6 -416 6 -13 20 -24 30 -24 12 0 16 -4 12 -12 -5 -8 9 -9
55 -5 108 12 101 -6 101 253 l0 225 -22 -1 c-13 -1 -32 -2 -43 -1 -18 1 -19 2
-2 12 15 9 17 28 17 159 0 83 3 151 8 151 4 1 70 4 147 8 l140 6 -60 61 -60
61 -59 -9z"/>
<path d="M3657 2353 c18 -2 50 -2 70 0 21 2 7 4 -32 4 -38 0 -55 -2 -38 -4z"/>
<path d="M3793 2353 c15 -2 37 -2 50 0 12 2 0 4 -28 4 -27 0 -38 -2 -22 -4z"/>
<path d="M4028 2335 c-3 -3 -32 -9 -64 -14 l-59 -9 83 -1 c76 -1 104 9 66 23
-19 7 -19 7 -26 1z"/>
<path d="M3175 2300 c-18 -20 -17 -20 23 -20 46 0 62 14 33 29 -27 15 -35 14
-56 -9z"/>
<path d="M5028 2291 c28 -4 76 -4 105 0 39 5 25 6 -53 6 -78 0 -92 -1 -52 -6z"/>
<path d="M3880 2272 c0 -5 -16 -27 -36 -50 -30 -35 -32 -42 -17 -42 11 0 25 6
33 13 8 6 5 0 -8 -14 -27 -31 -28 -39 -2 -39 11 0 20 -4 20 -10 0 -6 38 -10
95 -10 52 0 95 4 95 9 0 14 -149 151 -165 151 -8 0 -15 -4 -15 -8z"/>
<path d="M3140 2249 c-13 -6 -39 -26 -57 -46 -32 -35 -33 -35 -8 -30 25 4 25
4 10 -19 -15 -23 -14 -24 10 -24 15 0 24 -4 20 -10 -4 -6 43 -10 134 -10 79 0
141 4 141 9 0 5 -32 39 -72 75 -65 59 -76 66 -113 65 -22 0 -51 -5 -65 -10z"/>
<path d="M2900 2225 c-10 -13 -9 -15 10 -15 17 0 21 -4 17 -20 -3 -11 -3 -20
-1 -20 13 0 82 41 93 54 12 14 7 16 -47 16 -41 0 -63 -5 -72 -15z"/>
<path d="M2702 2221 c-60 -6 -77 -12 -101 -35 -22 -21 -36 -27 -54 -22 -26 6
-64 -24 -53 -42 12 -20 -118 -196 -233 -315 -50 -52 -53 -58 -31 -56 14 1 48
1 75 -1 l50 -2 -63 -12 c-54 -10 -69 -17 -112 -60 -49 -48 -64 -73 -36 -63 10
4 12 0 9 -14 -4 -15 0 -22 16 -26 11 -3 18 -9 15 -14 -3 -5 6 -9 19 -9 44 0
191 88 297 178 l35 29 -53 -3 c-31 -1 -50 1 -47 7 4 5 19 9 35 9 20 0 46 15
87 51 l58 51 3 -46 3 -46 42 6 c42 7 42 7 24 -14 -15 -16 -19 -43 -23 -127 -6
-111 5 -165 32 -165 8 0 14 -5 14 -11 0 -17 115 -5 146 15 24 17 25 17 22 159
l-3 142 -55 -3 c-39 -2 -51 0 -40 8 8 5 23 10 33 10 15 0 17 12 17 110 0 133
11 141 65 48 19 -35 40 -70 45 -78 6 -8 14 -25 20 -37 8 -20 17 -23 77 -24 38
-1 59 -3 48 -6 -11 -3 -24 -9 -29 -13 -17 -16 226 -230 261 -230 7 0 13 7 13
15 0 8 21 36 46 62 85 89 81 78 42 117 -20 20 -48 40 -63 46 -32 12 -143 15
-200 5 -28 -5 -37 -4 -30 3 6 6 33 12 60 14 l50 3 -86 41 c-100 48 -183 102
-256 168 -52 47 -52 47 -55 114 -3 67 -3 67 -33 68 -16 1 -63 -2 -103 -5z m51
-438 c-7 -2 -21 -2 -30 0 -10 3 -4 5 12 5 17 0 24 -2 18 -5z m-340 -30 c-7 -2
-21 -2 -30 0 -10 3 -4 5 12 5 17 0 24 -2 18 -5z"/>
<path d="M2458 2183 c6 -2 18 -2 25 0 6 3 1 5 -13 5 -14 0 -19 -2 -12 -5z"/>
<path d="M3628 2143 c7 -3 16 -2 19 1 4 3 -2 6 -13 5 -11 0 -14 -3 -6 -6z"/>
<path d="M3707 2143 c18 -2 50 -2 70 0 21 2 7 4 -32 4 -38 0 -55 -2 -38 -4z"/>
<path d="M1355 2130 c-3 -5 1 -10 10 -10 9 0 13 5 10 10 -3 6 -8 10 -10 10 -2
0 -7 -4 -10 -10z"/>
<path d="M2188 2133 c6 -2 18 -2 25 0 6 3 1 5 -13 5 -14 0 -19 -2 -12 -5z"/>
<path d="M2418 2133 c6 -2 18 -2 25 0 6 3 1 5 -13 5 -14 0 -19 -2 -12 -5z"/>
<path d="M2948 2133 c12 -2 30 -2 40 0 9 3 -1 5 -23 4 -22 0 -30 -2 -17 -4z"/>
<path d="M1548 2117 c-48 -6 -78 -15 -78 -22 0 -6 24 -25 53 -40 28 -16 55
-33 59 -39 9 -13 -6 -39 -49 -87 -19 -21 -30 -39 -24 -39 7 0 9 -4 6 -10 -8
-13 -242 -13 -250 -1 -3 5 3 12 12 14 10 3 -28 5 -83 6 -79 1 -104 -2 -114
-14 -9 -11 -39 -15 -124 -17 l-111 -2 115 -5 c78 -4 114 -10 113 -17 -1 -7 5
-11 15 -10 14 1 16 -10 15 -91 l-1 -93 46 -1 c36 0 42 -2 26 -9 -18 -7 -21
-17 -22 -64 0 -31 4 -56 9 -56 5 0 9 -9 9 -20 0 -11 7 -20 15 -20 8 0 15 -5
15 -11 0 -13 128 -8 149 5 7 5 11 39 11 92 l0 84 -42 0 c-37 1 -41 2 -26 14
13 9 18 31 20 87 l3 74 40 6 c39 6 38 6 -15 9 -88 3 -22 18 89 19 77 1 92 -1
88 -13 -4 -10 -1 -13 9 -9 11 4 14 -4 14 -33 0 -31 -7 -46 -37 -76 -35 -36
-34 -44 4 -39 6 1 14 -3 18 -9 3 -5 -1 -10 -9 -10 -8 0 -18 -5 -21 -11 -7 -11
13 -69 24 -69 3 0 12 -14 19 -30 8 -17 24 -33 38 -36 13 -3 24 -11 24 -16 0
-17 88 -1 120 22 28 20 51 66 65 128 l7 32 -54 1 c-29 1 -41 4 -25 6 23 4 27
9 27 37 0 18 9 45 20 59 l20 25 -43 42 c-23 24 -52 49 -64 58 -13 8 -23 18
-23 23 0 17 45 9 120 -21 41 -16 80 -29 87 -30 7 0 24 21 39 48 15 26 38 62
51 80 21 28 22 33 8 38 -9 4 -14 13 -11 20 3 9 -2 14 -13 14 -11 0 -21 5 -23
12 -9 26 -211 34 -360 15z m122 -427 c0 -5 -12 -10 -27 -9 -25 0 -26 1 -8 9
27 12 35 12 35 0z m-67 -7 c-7 -2 -21 -2 -30 0 -10 3 -4 5 12 5 17 0 24 -2 18
-5z m-340 -30 c-7 -2 -21 -2 -30 0 -10 3 -4 5 12 5 17 0 24 -2 18 -5z"/>
<path d="M1330 2093 c-25 -5 -70 -40 -70 -55 0 -4 7 -8 16 -8 10 0 14 -6 10
-15 -3 -10 1 -15 13 -15 10 0 21 -7 25 -15 7 -19 151 -22 162 -3 8 13 -101
119 -120 117 -6 -1 -22 -4 -36 -6z"/>
<path d="M1015 2072 c-116 -8 -177 -23 -262 -68 -93 -48 -125 -71 -86 -61 20
4 21 3 12 -14 -8 -16 -6 -19 11 -19 11 0 20 -7 20 -16 0 -13 8 -14 58 -7 31 4
77 7 101 6 39 -2 42 -1 26 11 -18 13 -17 14 6 21 13 4 55 23 93 41 37 19 76
34 86 34 10 0 20 7 24 15 3 8 12 15 20 15 8 0 27 11 41 26 l25 25 -67 -3 c-38
-1 -86 -4 -108 -6z"/>
<path d="M3857 2025 c-42 -39 -62 -66 -37 -50 6 3 10 1 10 -4 0 -6 -20 -11
-46 -11 -27 0 -43 4 -39 10 3 6 0 10 -7 10 -8 0 -52 15 -99 34 -60 24 -86 31
-91 23 -4 -7 -8 -47 -8 -89 0 -76 0 -77 28 -80 58 -7 164 9 174 26 5 9 16 16
23 16 18 0 20 16 3 23 -7 3 5 6 27 6 45 1 60 -7 60 -29 0 -12 14 -15 70 -14
68 1 68 1 28 -9 -48 -11 -44 2 -48 -156 -2 -46 -7 -86 -11 -90 -14 -10 -16
-34 -3 -25 9 5 10 2 6 -9 -3 -9 -2 -19 3 -22 6 -4 10 -15 10 -25 0 -10 16 -31
35 -46 31 -23 40 -25 82 -19 87 13 83 4 83 195 0 159 1 171 20 182 27 17 25
29 -2 27 -42 -4 -58 1 -52 15 5 13 -51 65 -136 128 l-35 25 -48 -42z m186
-132 c-7 -2 -21 -2 -30 0 -10 3 -4 5 12 5 17 0 24 -2 18 -5z"/>
<path d="M1343 1893 c26 -2 68 -2 95 0 26 2 4 3 -48 3 -52 0 -74 -1 -47 -3z"/>
<path d="M3664 1859 c-29 -4 -57 -10 -63 -14 -8 -4 -10 -51 -6 -158 7 -187 6
-178 34 -206 20 -20 31 -23 72 -19 59 6 79 21 79 59 0 16 9 38 20 49 11 11 16
20 10 20 -5 0 -10 4 -10 9 0 6 17 12 38 14 l37 4 -42 1 -43 2 0 123 0 124 -37
-1 c-21 0 -61 -3 -89 -7z"/>
<path d="M1438 1833 c6 -2 18 -2 25 0 6 3 1 5 -13 5 -14 0 -19 -2 -12 -5z"/>
<path d="M1420 1690 c0 -5 9 -10 21 -10 11 0 17 5 14 10 -3 6 -13 10 -21 10
-8 0 -14 -4 -14 -10z"/>
<path d="M1944 1196 c-8 -21 3 -36 27 -36 15 0 20 6 17 22 -4 27 -35 37 -44
14z"/>
<path d="M4857 1204 c-4 -4 -7 -16 -7 -26 0 -14 6 -19 23 -16 14 2 22 10 22
23 0 20 -25 32 -38 19z"/>
<path d="M962 1108 c3 -71 4 -73 31 -76 l27 -3 0 75 0 76 -30 0 -31 0 3 -72z"/>
<path d="M1098 1158 c26 -28 29 -74 7 -106 -15 -20 -15 -21 2 -15 33 11 63 46
63 73 0 32 -23 54 -65 64 l-30 8 23 -24z"/>
<path d="M2308 1105 c4 -75 4 -75 32 -75 28 0 28 0 32 75 l3 75 -35 0 -35 0 3
-75z"/>
<path d="M3454 1164 c3 -9 6 -43 6 -75 0 -60 0 -60 28 -57 26 3 27 5 30 76 l3
72 -37 0 c-29 0 -35 -3 -30 -16z"/>
<path d="M3595 1150 c14 -15 17 -31 13 -70 -5 -50 -5 -51 21 -48 24 3 26 7 29
55 3 44 0 53 -20 67 -12 9 -31 16 -42 16 -18 0 -18 -1 -1 -20z"/>
<path d="M6121 1129 c-6 -18 -11 -47 -11 -65 0 -29 3 -34 24 -34 27 0 36 30
28 94 -5 45 -26 47 -41 5z"/>
<path d="M1599 1064 c9 -19 24 -33 34 -34 35 0 9 47 -34 62 -14 6 -14 3 0 -28z"/>
<path d="M1962 1092 c-13 -4 -23 -10 -23 -14 1 -5 1 -17 1 -28 0 -15 7 -20 25
-20 22 0 25 4 25 35 0 19 -1 35 -2 34 -2 -1 -13 -4 -26 -7z"/>
<path d="M2876 1073 c9 -39 13 -43 34 -43 29 0 32 15 9 44 -28 36 -51 35 -43
-1z"/>
<path d="M3959 1088 c-21 -7 -25 -14 -21 -34 4 -21 9 -25 36 -22 27 3 31 6 28
28 -5 34 -13 39 -43 28z"/>
<path d="M4051 1091 c-12 -8 -12 -12 -2 -25 21 -25 53 -21 49 6 -3 25 -25 33
-47 19z"/>
<path d="M4872 1092 c-13 -4 -23 -10 -23 -14 1 -5 1 -17 1 -28 0 -15 7 -20 25
-20 22 0 25 4 25 35 0 19 -1 35 -2 34 -2 -1 -13 -4 -26 -7z"/>
<path d="M5692 1083 c-18 -9 -37 -24 -43 -34 -8 -16 -6 -19 15 -19 17 0 30 10
45 35 11 19 19 35 18 35 -1 0 -17 -8 -35 -17z"/>
<path d="M1492 1067 c-27 -29 -28 -37 -3 -37 12 0 26 12 35 30 18 37 0 41 -32
7z"/>
<path d="M2782 1078 c-13 -13 -16 -48 -4 -48 14 0 32 23 32 42 0 21 -11 23
-28 6z"/>
<path d="M4382 1067 c-27 -29 -28 -37 -3 -37 12 0 26 12 35 30 18 37 0 41 -32
7z"/>
<path d="M4490 1086 c0 -24 23 -56 40 -56 27 0 26 25 -2 44 -22 16 -38 20 -38
12z"/>
<path d="M5212 1067 c-27 -29 -28 -37 -3 -37 12 0 26 12 35 30 18 37 0 41 -32
7z"/>
<path d="M5323 1060 c7 -18 19 -30 29 -30 23 0 23 22 0 43 -30 27 -42 22 -29
-13z"/>
<path d="M5784 1074 c3 -9 6 -22 6 -30 0 -16 26 -19 35 -3 7 11 -22 49 -38 49
-5 0 -6 -7 -3 -16z"/>
<path d="M938 946 l-3 -76 33 0 33 0 -4 73 c-5 68 -6 72 -30 75 -25 3 -25 2
-29 -72z"/>
<path d="M1059 994 c12 -15 21 -39 21 -54 0 -38 28 -69 70 -76 35 -6 35 -6 13
10 -13 10 -23 27 -23 40 0 60 -37 106 -86 106 -12 0 -11 -5 5 -26z"/>
<path d="M1437 1013 c-12 -11 -7 -63 8 -93 20 -39 44 -50 102 -49 47 1 47 1
13 9 -47 11 -70 42 -70 96 0 39 -2 44 -23 44 -13 0 -27 -3 -30 -7z"/>
<path d="M1576 1004 c-9 -24 -8 -26 21 -22 37 4 45 38 10 38 -14 0 -28 -7 -31
-16z"/>
<path d="M1917 1013 c-4 -3 -7 -37 -7 -75 l0 -68 30 0 30 0 0 75 c0 72 -1 75
-23 75 -13 0 -27 -3 -30 -7z"/>
<path d="M2287 1013 c-4 -3 -7 -37 -7 -75 l0 -68 33 0 32 0 -3 75 c-3 70 -5
75 -26 75 -13 0 -26 -3 -29 -7z"/>
<path d="M2860 950 c0 -64 2 -71 22 -79 12 -4 31 -5 43 -2 17 4 18 6 3 9 -15
3 -18 15 -18 73 0 67 -1 69 -25 69 -24 0 -25 -2 -25 -70z"/>
<path d="M3435 1008 c-2 -7 -5 -41 -7 -76 l-3 -62 35 0 35 0 -3 75 c-3 72 -5
75 -28 75 -14 0 -27 -6 -29 -12z"/>
<path d="M3550 1010 c-12 -8 -9 -10 12 -10 15 0 30 5 33 10 8 13 -25 13 -45 0z"/>
<path d="M3918 945 l-3 -75 30 0 30 0 -3 75 c-3 71 -5 75 -27 75 -22 0 -24 -4
-27 -75z"/>
<path d="M4327 1013 c-23 -23 7 -114 44 -134 26 -14 34 -6 20 19 -6 12 -11 43
-11 71 0 47 -2 51 -23 51 -13 0 -27 -3 -30 -7z"/>
<path d="M4480 965 c0 -31 -5 -65 -10 -76 -15 -26 3 -24 36 5 23 19 28 32 28
72 1 46 -1 49 -26 52 -28 3 -28 3 -28 -53z"/>
<path d="M4820 896 c0 -131 -4 -143 -41 -110 -20 18 -53 12 -47 -9 7 -19 76
-21 103 -3 32 21 47 79 43 169 -3 70 -4 72 -30 75 l-28 3 0 -125z"/>
<path d="M5157 1013 c-24 -23 7 -114 44 -134 35 -19 108 -15 127 7 9 10 10 13
3 6 -16 -13 -50 -16 -76 -6 -23 9 -45 57 -45 99 0 30 -3 35 -23 35 -13 0 -27
-3 -30 -7z"/>
<path d="M5296 1004 c-9 -23 -8 -24 24 -24 23 0 30 4 30 20 0 25 -45 28 -54 4z"/>
<path d="M5617 1013 c-4 -3 -7 -24 -7 -45 0 -60 42 -98 107 -98 30 0 57 6 69
16 18 15 18 15 -3 5 -60 -29 -113 10 -113 84 0 40 -2 45 -23 45 -13 0 -27 -3
-30 -7z"/>
<path d="M6087 1013 c-11 -10 -8 -102 3 -124 8 -15 21 -19 58 -18 36 1 41 3
22 8 -23 6 -25 12 -28 74 -3 62 -5 67 -26 67 -12 0 -26 -3 -29 -7z"/>
<path d="M2756 959 c-27 -22 -34 -57 -14 -77 7 -7 30 -12 53 -11 34 0 37 2 17
9 -29 12 -38 36 -25 71 13 34 5 36 -31 8z"/>
<path d="M2452 910 c-9 -36 -8 -41 6 -38 19 4 29 55 14 70 -6 6 -13 -6 -20
-32z"/>
</g>
</svg>
