<?xml version="1.0" standalone="no"?>
<!DOCTYPE svg PUBLIC "-//W3C//DTD SVG 20010904//EN"
 "http://www.w3.org/TR/2001/REC-SVG-20010904/DTD/svg10.dtd">
<svg version="1.0" xmlns="http://www.w3.org/2000/svg"
 width="690.000000pt" height="361.000000pt" viewBox="0 0 690.000000 361.000000"
 preserveAspectRatio="xMidYMid meet">

<g transform="translate(0.000000,361.000000) scale(0.100000,-0.100000)"
fill="#000000" stroke="none">
<path d="M1653 2824 c-10 -15 -28 -37 -40 -50 l-22 -24 -388 -2 c-213 -2 -301
-4 -195 -5 l192 -3 0 -194 0 -193 -28 -39 c-66 -90 -244 -231 -362 -287 -36
-17 -76 -39 -90 -50 l-25 -20 60 6 c114 10 323 110 492 236 51 38 104 72 118
75 36 9 31 24 -12 32 -83 15 -97 45 -30 66 l42 13 5 175 5 175 218 3 c136 1
217 6 215 12 -5 15 -111 100 -125 100 -7 0 -20 -12 -30 -26z"/>
<path d="M2588 2509 l-3 -324 -47 -3 c-46 -3 -47 -3 -63 -52 -28 -85 -93 -170
-248 -327 -83 -84 -148 -155 -145 -159 12 -11 87 17 149 57 90 59 163 116 259
204 45 42 87 74 93 72 6 -2 8 -45 6 -112 -2 -61 -4 -155 -4 -210 l0 -100 44 3
c25 2 61 9 80 15 l36 12 5 255 c4 227 7 255 22 258 19 4 57 -48 112 -155 43
-82 138 -182 230 -244 55 -37 60 -38 69 -22 6 10 34 44 63 75 30 31 54 61 54
66 0 5 -45 26 -99 47 -154 58 -292 147 -401 260 l-35 36 -3 304 c-3 291 -2
305 17 324 25 25 18 27 -97 36 l-92 8 -2 -324z"/>
<path d="M3788 2780 l-33 -49 -130 -4 c-71 -1 -31 -3 89 -2 159 0 220 3 223
12 4 11 -90 93 -108 93 -5 0 -24 -22 -41 -50z"/>
<path d="M4255 2820 c-8 -13 6 -1246 15 -1259 7 -13 127 4 147 21 10 8 13 95
15 377 l3 366 138 3 c75 1 137 6 137 11 0 15 -120 123 -132 119 -7 -3 -22 -24
-35 -47 -12 -24 -31 -50 -40 -57 -25 -18 -60 -17 -67 2 -3 9 -6 105 -6 214 0
193 1 199 22 214 12 9 20 18 17 21 -7 6 -135 25 -176 25 -17 0 -35 -4 -38 -10z"/>
<path d="M5098 2524 l-3 -309 -140 -5 c-91 -3 -129 -8 -108 -12 l33 -7 2 -208
3 -208 30 3 c17 2 52 13 78 24 45 19 62 21 244 16 118 -4 208 -2 225 4 l28 10
0 119 c0 73 4 119 10 119 25 0 6 33 -35 62 -25 18 -45 40 -45 49 0 15 11 19
70 21 l70 3 -56 43 c-30 24 -54 48 -51 55 2 7 18 17 36 23 l32 10 -41 33 c-44
35 -51 64 -20 81 15 8 20 23 22 73 l3 62 68 0 c49 0 70 -4 77 -15 6 -9 10
-158 10 -354 l0 -339 50 6 c98 12 90 -24 90 405 0 274 3 381 12 390 15 15 -16
27 -94 36 l-58 7 0 -50 c0 -27 -5 -53 -11 -57 -6 -3 -23 6 -38 20 -33 31 -47
33 -61 6 -25 -47 -61 -5 -38 45 12 26 10 30 -32 66 -25 22 -51 39 -59 39 -7 0
-29 -13 -48 -30 -55 -49 -124 -34 -109 24 8 31 5 32 -76 41 l-68 7 -2 -308z
m240 69 l-3 -128 -39 -3 c-24 -2 -42 2 -47 10 -10 15 -12 232 -2 241 3 4 26 7
50 7 l44 0 -3 -127z m16 -164 c43 -34 33 -65 -29 -87 -27 -9 -23 -11 38 -11
52 -1 69 -5 74 -17 16 -41 -91 -109 -161 -102 l-31 3 -3 104 c-1 58 0 111 2
118 8 21 79 16 110 -8z m24 -256 c-2 -10 -19 -28 -38 -41 -33 -22 -41 -23
-185 -20 -133 3 -155 6 -197 26 -27 13 -48 30 -48 38 0 12 39 14 236 14 217 0
235 -1 232 -17z m-264 -114 c12 -63 -15 -98 -71 -87 -14 3 -19 14 -21 61 l-3
57 44 0 c42 0 45 -2 51 -31z m224 -26 c-3 -58 -3 -58 -36 -61 -18 -2 -40 2
-48 9 -14 12 -20 90 -7 102 3 4 26 7 50 7 l44 0 -3 -57z m-223 -94 c12 -38 -4
-88 -30 -95 -50 -12 -60 -3 -63 59 l-3 57 45 0 c36 0 46 -4 51 -21z m223 -36
c-3 -58 -3 -58 -36 -61 -18 -2 -40 2 -48 9 -14 12 -20 90 -7 102 3 4 26 7 50
7 l44 0 -3 -57z"/>
<path d="M5878 2274 l-3 -539 -62 -3 c-35 -2 -63 -5 -63 -8 0 -3 11 -20 24
-37 14 -18 33 -54 43 -82 19 -50 19 -50 58 -46 54 4 109 34 137 73 l23 33 3
550 c2 482 4 551 18 562 23 17 4 23 -91 30 l-85 6 -2 -539z"/>
<path d="M4908 2723 c12 -2 32 -2 45 0 12 2 2 4 -23 4 -25 0 -35 -2 -22 -4z"/>
<path d="M3068 2692 c-13 -15 -35 -42 -47 -59 l-22 -33 -97 -1 -97 -1 65 -13
c36 -7 72 -9 80 -5 8 4 80 9 160 9 79 1 146 4 148 5 3 4 -93 80 -139 109 -24
16 -26 16 -51 -11z"/>
<path d="M1762 2647 c-36 -37 -40 -45 -28 -57 11 -12 12 -29 3 -88 -5 -40 -7
-75 -4 -78 8 -8 196 128 197 142 0 10 -112 124 -122 124 -2 0 -23 -19 -46 -43z"/>
<path d="M770 2598 c-78 -87 -100 -120 -100 -152 0 -17 4 -36 8 -43 11 -18 55
-32 84 -26 47 9 69 44 79 129 6 43 12 80 14 83 1 3 -7 18 -18 33 l-22 26 -45
-50z"/>
<path d="M3865 2606 c-14 -24 -31 -46 -38 -48 -7 -3 -95 -6 -197 -7 -102 -2
-187 -5 -190 -7 -5 -6 390 -1 495 6 l79 5 -54 48 c-30 26 -58 47 -62 47 -4 0
-19 -20 -33 -44z"/>
<path d="M2921 2518 c-21 -56 -73 -259 -68 -265 15 -14 79 28 167 112 52 49
96 93 98 96 1 3 -30 20 -70 36 -113 47 -117 48 -127 21z"/>
<path d="M2268 2525 c-9 -9 60 -257 74 -267 22 -13 87 -9 113 8 58 38 32 147
-49 206 -54 40 -124 67 -138 53z"/>
<path d="M1010 2485 c-20 -21 -44 -35 -59 -36 -19 -1 -15 -4 14 -10 42 -9 175
-2 175 10 0 8 -80 71 -90 71 -3 0 -21 -16 -40 -35z"/>
<path d="M1561 2479 c-32 -37 -37 -40 -75 -35 -31 4 -35 3 -16 -3 29 -11 175
-13 208 -5 23 7 23 7 -14 45 -21 22 -45 39 -54 38 -8 0 -30 -19 -49 -40z"/>
<path d="M3796 2420 l-36 -50 95 0 c52 0 95 4 95 8 0 15 -93 92 -111 92 -4 0
-23 -22 -43 -50z"/>
<path d="M4903 2453 c9 -2 23 -2 30 0 6 3 -1 5 -18 5 -16 0 -22 -2 -12 -5z"/>
<path d="M994 2359 c-22 -17 -63 -36 -90 -44 -48 -13 -45 -13 89 -14 77 -1
137 3 137 8 0 10 -79 81 -89 81 -3 -1 -24 -14 -47 -31z"/>
<path d="M1609 2358 c-13 -18 -30 -38 -39 -45 -12 -10 5 -12 85 -12 l100 0
-48 44 c-27 25 -55 45 -62 45 -8 0 -24 -15 -36 -32z"/>
<path d="M4888 2323 c23 -2 59 -2 80 0 20 2 1 4 -43 4 -44 0 -61 -2 -37 -4z"/>
<path d="M1463 2303 c15 -2 37 -2 50 0 12 2 0 4 -28 4 -27 0 -38 -2 -22 -4z"/>
<path d="M3090 2263 c-18 -27 -44 -57 -57 -69 l-25 -21 140 -2 c83 -1 143 2
146 8 8 12 -132 131 -154 131 -9 0 -31 -21 -50 -47z"/>
<path d="M3820 2282 c0 -5 -16 -27 -36 -50 l-36 -42 104 0 103 1 -54 49 c-51
46 -81 62 -81 42z"/>
<path d="M1380 2231 c0 -15 105 -108 146 -129 81 -41 92 -87 37 -152 l-25 -30
-336 -2 c-221 -1 -292 -4 -207 -8 l130 -5 3 -177 2 -178 36 0 c19 0 55 5 80
11 l44 11 0 164 c0 192 -14 176 150 172 l105 -3 3 -56 c2 -30 -2 -67 -7 -82
-10 -25 -15 -27 -66 -27 -30 0 -55 -4 -55 -8 0 -5 15 -26 34 -48 18 -21 36
-49 40 -61 14 -45 134 -23 169 30 22 34 47 130 47 179 0 25 5 41 15 44 27 11
16 30 -50 83 -60 48 -74 71 -41 71 6 0 50 -16 96 -35 l85 -35 18 23 c31 38 97
147 89 147 -25 0 -261 32 -305 41 -28 6 -85 24 -125 40 -73 29 -112 36 -112
20z"/>
<path d="M1339 2108 c-12 -18 -29 -39 -37 -45 -13 -11 2 -13 81 -13 53 0 97 2
97 5 0 6 -105 85 -113 85 -3 0 -16 -15 -28 -32z"/>
<path d="M3815 2056 c-23 -35 -80 -59 -126 -53 -20 3 -74 20 -118 38 -51 21
-85 29 -90 23 -6 -5 -7 -109 -3 -259 l7 -250 50 3 c66 5 77 12 90 64 10 43 10
43 60 47 l50 5 -50 5 -50 6 -3 153 -3 152 76 0 75 0 2 -197 3 -198 55 1 c101
2 100 -1 100 189 0 154 1 165 20 175 11 6 20 14 20 18 0 11 -125 102 -139 102
-6 0 -18 -11 -26 -24z"/>
<path d="M5115 1734 c-88 -6 -193 -13 -232 -13 -40 -1 -73 -5 -73 -10 0 -17
40 -102 61 -133 20 -28 22 -29 46 -12 14 9 101 36 192 59 171 45 413 114 420
121 9 8 -260 1 -414 -12z"/>
<path d="M2017 1193 c-11 -10 -8 -41 4 -49 6 -3 18 1 27 9 13 13 13 19 2 31
-14 17 -23 20 -33 9z"/>
<path d="M4804 1179 c-8 -14 21 -43 35 -35 6 4 11 16 11 27 0 21 -34 27 -46 8z"/>
<path d="M1070 1168 c0 -2 -2 -67 -3 -146 l-2 -142 30 0 30 0 -3 145 -3 145
-25 0 c-13 0 -24 -1 -24 -2z"/>
<path d="M1193 1150 c36 -28 36 -72 1 -107 -22 -22 -24 -27 -11 -42 8 -9 18
-35 22 -58 8 -49 20 -61 66 -68 19 -3 27 -2 19 1 -22 10 -30 25 -30 62 0 24
-8 42 -29 61 l-29 27 34 22 c26 17 34 29 34 52 0 32 -23 53 -75 65 l-30 7 28
-22z"/>
<path d="M2364 1161 c-2 -2 -4 -67 -4 -143 l0 -138 30 0 30 0 0 144 0 144 -26
-2 c-14 0 -28 -3 -30 -5z"/>
<path d="M3465 1020 l0 -140 30 0 30 0 0 140 0 140 -30 0 -30 0 0 -140z"/>
<path d="M3596 1139 c28 -31 25 -96 -6 -122 l-25 -20 35 7 c78 14 97 106 29
141 -41 22 -56 19 -33 -6z"/>
<path d="M1675 1039 c0 -47 1 -49 28 -49 21 0 27 5 27 21 0 27 -16 56 -38 68
-15 8 -17 3 -17 -40z"/>
<path d="M2030 1081 c-24 -7 -25 -9 -25 -104 l0 -97 28 0 27 0 0 105 c0 58 -1
105 -2 104 -2 -1 -14 -4 -28 -8z"/>
<path d="M2898 1078 c7 -7 12 -44 12 -94 0 -62 4 -87 16 -98 34 -34 40 -20 36
77 -5 98 -17 127 -56 127 -15 0 -17 -3 -8 -12z"/>
<path d="M4036 1078 c-16 -9 -16 -11 4 -25 23 -17 50 -11 50 11 0 18 -32 26
-54 14z"/>
<path d="M1582 1073 c-20 -8 -42 -59 -42 -98 0 -57 44 -95 109 -95 27 0 52 4
55 8 2 4 -10 6 -27 4 -48 -5 -82 35 -82 96 0 26 4 57 8 70 8 22 4 25 -21 15z"/>
<path d="M2812 1068 c-7 -7 -12 -20 -12 -31 0 -30 34 -16 38 16 4 29 -6 35
-26 15z"/>
<path d="M3937 1073 c-4 -3 -7 -48 -7 -100 l0 -93 29 0 29 0 4 78 c2 42 0 87
-4 100 -7 21 -37 30 -51 15z"/>
<path d="M4355 1058 c-52 -46 -42 -144 18 -174 28 -15 29 -15 21 2 -13 30 -17
150 -4 173 14 28 -2 27 -35 -1z"/>
<path d="M4466 1053 c18 -36 18 -104 0 -147 -13 -32 -13 -33 5 -29 83 22 73
203 -11 203 -5 0 -2 -12 6 -27z"/>
<path d="M4805 1074 c-6 -2 -9 -59 -7 -149 3 -153 0 -164 -40 -128 -14 13 -21
14 -30 5 -19 -19 4 -34 47 -30 65 5 78 35 83 183 l4 125 -23 -1 c-13 0 -28 -2
-34 -5z"/>
<path d="M5167 1069 c-42 -25 -58 -98 -33 -148 25 -48 110 -68 152 -36 18 14
17 15 -7 4 -40 -17 -85 10 -98 59 -10 35 -3 94 13 121 9 14 -3 14 -27 0z"/>
<path d="M5260 1054 c6 -14 7 -36 4 -48 -5 -20 -2 -22 24 -18 28 4 29 6 21 34
-10 36 -27 58 -45 58 -10 0 -11 -6 -4 -26z"/>
<path d="M2823 968 c-44 -21 -41 -82 4 -91 37 -7 63 4 35 14 -25 9 -31 56 -10
77 15 15 1 15 -29 0z"/>
<path d="M2523 910 c-9 -36 -8 -41 6 -38 11 2 17 16 19 41 4 49 -11 47 -25 -3z"/>
</g>
</svg>
